<svg width="135" height="22" viewBox="0 0 135 22" fill="none" xmlns="http://www.w3.org/2000/svg">
<path d="M71.2773 0.688715C71.9957 0.416562 72.736 0.196117 73.5035 0.315865C75.0901 0.563525 76.0046 2.27809 75.4086 3.88108C74.9813 5.04045 74.5023 6.18077 74.0478 7.32926L70.899 15.2517C70.8636 15.3415 70.8418 15.4367 70.8119 15.5238L70.7792 15.5701H70.8554C72.3178 15.0748 73.7774 14.5794 75.2344 14.0841C76.2413 13.7412 77.2429 13.3847 78.2553 13.0554C78.5274 12.9656 78.6281 12.8513 78.6009 12.5546C78.3288 9.47927 80.4216 5.50311 83.4997 3.90829C89.5959 0.745867 96.0786 4.61589 97.0829 10.44L97.1563 10.889C97.2598 11.5068 97.0257 11.8851 96.4215 12.0593L91.2316 13.5779L85.2632 15.3279L84.9611 15.4231C85.636 16.089 86.5251 16.4941 87.4704 16.5662C88.2204 16.6528 88.98 16.5468 89.6776 16.2582C90.3753 15.9696 90.9878 15.508 91.4574 14.9169C91.8793 14.408 92.214 14.3726 92.7937 14.6828C93.5911 15.1265 94.3913 15.5673 95.1859 16.0137C95.3175 16.0697 95.434 16.1562 95.5256 16.266C95.6173 16.3758 95.6816 16.5058 95.7132 16.6453C95.7448 16.7848 95.7429 16.9298 95.7075 17.0684C95.6721 17.207 95.6044 17.3352 95.5098 17.4425C94.7406 18.5376 93.7394 19.4498 92.5775 20.114C91.4156 20.7782 90.1216 21.1781 88.7876 21.2853C87.29 21.463 85.772 21.2424 84.3869 20.6457C82.7873 19.9137 81.4044 18.7801 80.3726 17.3554C80.2148 17.1458 80.1005 17.0832 79.8528 17.1731C76.0046 18.5066 72.1554 19.8329 68.3053 21.1519C67.8322 21.3377 67.3477 21.4931 66.8548 21.6173C66.4963 21.686 66.1264 21.6647 65.7782 21.5553C65.4299 21.4459 65.1143 21.2519 64.8594 20.9906C64.6046 20.7293 64.4186 20.4088 64.3179 20.058C64.2173 19.7071 64.2053 19.3368 64.2829 18.9802C64.5551 17.6629 65.1565 16.4627 65.6437 15.2244C66.8085 12.2444 68.0033 9.27788 69.1817 6.30324C69.2252 6.19438 69.247 6.07463 69.2797 5.96305L71.2773 0.688715ZM90.973 8.73357C89.8164 7.51977 87.6418 7.21496 85.9763 8.00148C84.757 8.57845 83.995 9.53643 83.5732 10.8836L90.973 8.73357Z" fill="#FF5757"/>
<path d="M71.2774 0.688599L69.2826 5.96293L62.3617 8.1075L60.8785 8.56744C61.1403 9.3496 61.3628 10.1444 61.5452 10.9488C61.8844 12.6973 61.6948 14.5072 61.0008 16.1475C60.3067 17.7878 59.1397 19.1841 57.6486 20.1582C56.1574 21.1323 54.4099 21.64 52.6289 21.6165C50.848 21.593 49.1145 21.0394 47.6496 20.0263C46.1846 19.0132 45.0548 17.5866 44.4043 15.9285C43.7538 14.2705 43.6121 12.4562 43.9972 10.7173C44.3824 8.9783 45.2769 7.39355 46.5667 6.16527C47.8565 4.93698 49.4831 4.12086 51.2388 3.82109C53.2963 3.51083 55.3211 3.73672 57.1663 4.82805C57.3164 4.90054 57.4883 4.91413 57.648 4.86616C62.153 3.48724 66.6545 2.1038 71.1523 0.715814L71.2774 0.688599ZM52.8935 8.88314C52.1712 8.87997 51.4642 9.09069 50.8615 9.48875C50.2588 9.88681 49.7875 10.4544 49.5069 11.1199C49.2264 11.7855 49.1491 12.5192 49.2849 13.2285C49.4207 13.9379 49.7634 14.5912 50.27 15.1061C50.7765 15.621 51.4241 15.9743 52.1312 16.1217C52.8383 16.269 53.5732 16.2037 54.2432 15.934C54.9132 15.6644 55.4884 15.2023 55.8962 14.6062C56.3041 14.0101 56.5263 13.3066 56.5349 12.5844C56.5406 12.1018 56.4508 11.6228 56.2706 11.1751C56.0904 10.7273 55.8233 10.3197 55.4848 9.97561C55.1463 9.63155 54.7431 9.35788 54.2983 9.17038C53.8536 8.98289 53.3761 8.88526 52.8935 8.88314Z" fill="white"/>
<path d="M103.762 15.423C105.466 17.0913 108.471 16.9498 110.055 15.1509C110.787 14.3344 110.898 14.299 111.867 14.8352C112.58 15.2307 113.291 15.6271 114.001 16.0245C114.128 16.0818 114.24 16.168 114.329 16.2762C114.417 16.3845 114.479 16.5119 114.509 16.6482C114.539 16.7846 114.538 16.9261 114.504 17.0616C114.47 17.1971 114.405 17.3228 114.314 17.4288C113.546 18.5233 112.547 19.4351 111.387 20.0993C110.227 20.7635 108.935 21.1638 107.602 21.2716C105.994 21.4294 104.407 21.2716 102.976 20.5286C100.572 19.3274 98.7267 17.2407 97.8294 14.7073C96.24 10.4753 99.1058 4.44434 104.361 3.09174C109.616 1.73914 114.953 5.1084 115.868 10.4399C115.895 10.6005 115.919 10.761 115.947 10.9216C116.053 11.5258 115.808 11.8986 115.19 12.0782L108.906 13.9153L103.762 15.423ZM109.774 8.73348C108.628 7.53056 106.473 7.21759 104.818 7.98778C103.583 8.56203 102.81 9.52545 102.369 10.8835L109.774 8.73348Z" fill="#FF5757"/>
<path d="M122.576 15.4287C124.04 16.9038 126.683 16.9936 128.351 15.6247C128.62 15.3886 128.872 15.1339 129.105 14.8626C129.489 14.4462 129.829 14.3782 130.324 14.6504C131.152 15.1076 131.977 15.5675 132.801 16.0302C132.928 16.0869 133.04 16.1723 133.129 16.2798C133.217 16.3873 133.279 16.5138 133.31 16.6495C133.342 16.7851 133.341 16.9262 133.308 17.0615C133.275 17.1968 133.212 17.3226 133.122 17.429C132.355 18.5238 131.357 19.436 130.197 20.1007C129.037 20.7654 127.746 21.1662 126.413 21.2746C124.756 21.4351 123.148 21.2746 121.656 20.4772C119.311 19.26 117.515 17.1979 116.632 14.7075C115.032 10.4456 117.939 4.40922 123.232 3.06751C124.472 2.75432 125.763 2.69976 127.025 2.90723C128.287 3.11469 129.492 3.57974 130.567 4.27341C131.641 4.96708 132.561 5.87452 133.269 6.9392C133.978 8.00389 134.459 9.20302 134.684 10.4619C134.709 10.6007 134.733 10.7341 134.755 10.8783C134.858 11.526 134.63 11.8907 134.006 12.0731L127.725 13.9101L122.881 15.3307L122.576 15.4287ZM128.563 8.73646C127.551 7.69684 125.646 7.20968 123.888 7.86285C122.334 8.43982 121.316 9.97476 121.245 10.8565L128.563 8.73646Z" fill="#FF5757"/>
<path d="M33.8402 3.73955C37.8463 3.42658 42.7804 6.98634 42.7859 12.5682C42.7859 17.467 38.7526 21.4567 33.8048 21.4758C32.6006 21.4732 31.4093 21.2286 30.3016 20.7563C29.1939 20.2841 28.1925 19.5939 27.3569 18.7268C26.5214 17.8598 25.8687 16.8335 25.4377 15.7091C25.0067 14.5848 24.8063 13.3852 24.8482 12.1818C25.0415 7.22856 29.4912 3.42658 33.8402 3.73955ZM33.8402 16.196C34.5624 16.1992 35.2695 15.9885 35.8721 15.5904C36.4748 15.1924 36.9461 14.6248 37.2267 13.9592C37.5073 13.2937 37.5846 12.56 37.4488 11.8506C37.313 11.1412 36.9702 10.4879 36.4637 9.97307C35.9571 9.45821 35.3095 9.10483 34.6024 8.95749C33.8954 8.81015 33.1605 8.87543 32.4905 9.14512C31.8204 9.41481 31.2453 9.87683 30.8374 10.4729C30.4296 11.069 30.2074 11.7725 30.1988 12.4947C30.193 12.9785 30.2833 13.4586 30.4643 13.9072C30.6454 14.3559 30.9137 14.7641 31.2536 15.1084C31.5936 15.4526 31.9984 15.726 32.4447 15.9127C32.8911 16.0994 33.37 16.1957 33.8538 16.196H33.8402Z" fill="white"/>
<path d="M16.611 11.8446L18.4643 7.46834C18.595 7.15809 18.7365 6.84783 18.8562 6.5403C18.9772 6.18674 19.1696 5.86187 19.4216 5.58594C19.6736 5.31001 19.9797 5.08892 20.3208 4.93645C20.662 4.78398 21.0309 4.70339 21.4045 4.69972C21.7782 4.69604 22.1486 4.76935 22.4927 4.91507C22.8367 5.0608 23.1471 5.27582 23.4045 5.54674C23.6618 5.81766 23.8606 6.13867 23.9885 6.48978C24.1164 6.84089 24.1706 7.21457 24.1477 7.58754C24.1249 7.96051 24.0255 8.32478 23.8557 8.65765C22.8596 11.0363 21.8472 13.4067 20.843 15.7962C20.2769 17.1316 19.7135 18.4697 19.1529 19.8105C18.958 20.3286 18.6098 20.775 18.1547 21.0901C17.6995 21.4052 17.1591 21.5741 16.6055 21.5741C16.052 21.5741 15.5116 21.4052 15.0564 21.0901C14.6013 20.775 14.253 20.3286 14.0582 19.8105L11.949 14.792C11.9136 14.7076 11.8728 14.6233 11.8075 14.4845C11.7285 14.6586 11.6687 14.7811 11.617 14.9063C10.9257 16.561 10.229 18.2238 9.51322 19.8785C9.39247 20.2339 9.19952 20.5604 8.94651 20.8376C8.6935 21.1149 8.38588 21.3367 8.043 21.4893C7.70011 21.6419 7.32937 21.722 6.95407 21.7244C6.57876 21.7269 6.20701 21.6516 5.86217 21.5035C5.51733 21.3554 5.20686 21.1375 4.95027 20.8636C4.69367 20.5897 4.4965 20.2657 4.37114 19.912C4.24578 19.5582 4.19495 19.1823 4.22184 18.808C4.24872 18.4336 4.35274 18.0689 4.52736 17.7367C5.43454 15.5595 6.34988 13.3931 7.27339 11.2377C7.932 9.66734 8.58789 8.09429 9.26283 6.54302C9.44043 6.11178 9.72492 5.73288 10.0895 5.44204C10.4541 5.1512 10.8867 4.95801 11.3466 4.88067C11.8066 4.80334 12.2786 4.84442 12.7182 5.00003C13.1579 5.15564 13.5506 5.42066 13.8595 5.7701C14.089 6.04358 14.2729 6.35238 14.4038 6.68454C15.1141 8.31746 15.8027 9.97487 16.4994 11.6187C16.5293 11.6704 16.5593 11.7303 16.611 11.8446Z" fill="white"/>
<path d="M3.16071 14.0923C2.55381 13.0418 1.97956 12.0348 1.39987 11.0333C1.12772 10.5543 0.825631 10.0807 0.542591 9.6099C-0.121464 8.49135 -0.145957 7.35919 0.564363 6.27058C0.865145 5.76455 1.31223 5.36156 1.84666 5.11475C2.3811 4.86793 2.97779 4.78889 3.55805 4.88804C4.17018 4.94799 4.74841 5.19724 5.21228 5.60112C5.67615 6.005 6.00261 6.54341 6.14623 7.14147C6.2645 7.53867 6.29751 7.95638 6.24311 8.36723C6.1887 8.77808 6.04811 9.1728 5.83053 9.52553C5.00137 10.9607 4.16768 12.3949 3.32944 13.8283C3.2859 13.8909 3.23963 13.9644 3.16071 14.0923Z" fill="#FE5858"/>
</svg>
