<svg width="20" height="21" viewBox="0 0 20 21" fill="none" xmlns="http://www.w3.org/2000/svg">
<path d="M19.3926 13.8034L11.6667 6.07834V2.65251C11.6667 2.11169 11.5467 1.56669 11.31 1.05832L11.1342 0.725003C10.9267 0.277501 10.4925 0 10 0C9.50754 0 9.07336 0.277501 8.87503 0.705823L8.68085 1.07664C8.45335 1.56665 8.33335 2.11083 8.33335 2.65247V6.07831L0.610002 13.8017C0.216681 14.1951 0 14.7176 0 15.2742V16.2509C0 16.4034 0.0833206 16.5434 0.216681 16.6159C0.350001 16.6892 0.513361 16.6842 0.641682 16.6009L8.49503 11.5684C8.57253 12.8292 8.67753 13.8817 8.80585 15.1626L8.93836 16.4751L6.02084 18.4026C5.90334 18.4809 5.83334 18.6109 5.83334 18.7509V19.5843C5.83334 19.7101 5.89084 19.8301 5.98916 19.9093C6.08834 19.9893 6.21749 20.0193 6.33999 19.9918L10 19.1776L13.66 19.9918C13.69 19.9984 13.72 20.0018 13.75 20.0018C13.8442 20.0018 13.9358 19.9701 14.0108 19.9101C14.1092 19.8301 14.1667 19.7101 14.1667 19.5843V18.7509C14.1667 18.6109 14.0967 18.4801 13.9792 18.4034L11.0616 16.4784L11.1941 15.1617C11.3225 13.8826 11.4275 12.8309 11.505 11.57L19.3583 16.6009C19.4875 16.6842 19.65 16.6884 19.7825 16.6159C19.9167 16.5434 20 16.4034 20 16.2509V15.2742C20.0001 14.7176 19.7843 14.1951 19.3926 13.8034Z" fill="#043F7C"/>
</svg>
