<svg width="20" height="23" viewBox="0 0 20 23" fill="none" xmlns="http://www.w3.org/2000/svg">
<path d="M3.71094 21.0877C3.71094 21.8087 4.23559 22.3931 4.88281 22.3931H5.675C6.32223 22.3931 6.84687 21.8087 6.84687 21.0877V19.9877H3.71094V21.0877Z" fill="#043F7C"/>
<path d="M0 5.98847V8.61149H1.75781V4.68304H1.17188C0.524648 4.68304 0 5.26753 0 5.98847Z" fill="#043F7C"/>
<path d="M18.8281 4.68304H18.2422V8.61149H20V5.98847C20 5.26753 19.4754 4.68304 18.8281 4.68304Z" fill="#043F7C"/>
<path d="M13.1533 21.0877C13.1533 21.8087 13.678 22.3931 14.3252 22.3931H15.1174C15.7646 22.3931 16.2893 21.8087 16.2893 21.0877V19.9877H13.1533V21.0877Z" fill="#043F7C"/>
<path d="M15.8594 0.11377H4.14062C3.47184 0.11377 2.92969 0.717701 2.92969 1.46271V2.72461H17.0703V1.46271C17.0703 0.717701 16.5282 0.11377 15.8594 0.11377Z" fill="#043F7C"/>
<path d="M2.92969 11.552C7.6227 12.3387 12.3772 12.3387 17.0703 11.552V4.03027H2.92969V11.552Z" fill="#043F7C"/>
<path d="M8.41504 16.7241H11.5854V18.6822H8.41504V16.7241Z" fill="#043F7C"/>
<path d="M2.92969 12.8719V15.4185H5.87574V16.7239H2.92969V18.682H7.24293V15.4185H12.757V18.682H17.0703V16.7239H14.1242V15.4185H17.0703V12.8719C14.7233 13.2557 12.3617 13.4478 10 13.4478C7.63832 13.4478 5.27668 13.2557 2.92969 12.8719Z" fill="#043F7C"/>
</svg>
