<svg width="20" height="24" viewBox="0 0 20 24" fill="none" xmlns="http://www.w3.org/2000/svg">
<path d="M3.71094 21.7972C3.71094 22.5182 4.23559 23.1026 4.88281 23.1026H5.675C6.32223 23.1026 6.84687 22.5182 6.84687 21.7972V20.6971H3.71094V21.7972Z" fill="white"/>
<path d="M0 6.69794V9.32097H1.75781V5.39252H1.17188C0.524648 5.39252 0 5.977 0 6.69794Z" fill="white"/>
<path d="M18.8281 5.39252H18.2422V9.32097H20V6.69794C20 5.977 19.4754 5.39252 18.8281 5.39252Z" fill="white"/>
<path d="M13.1533 21.7972C13.1533 22.5182 13.678 23.1026 14.3252 23.1026H15.1174C15.7646 23.1026 16.2893 22.5182 16.2893 21.7972V20.6971H13.1533V21.7972Z" fill="white"/>
<path d="M15.8594 0.823242H4.14062C3.47184 0.823242 2.92969 1.42717 2.92969 2.17218V3.43409H17.0703V2.17218C17.0703 1.42717 16.5282 0.823242 15.8594 0.823242Z" fill="white"/>
<path d="M2.92969 12.2615C7.6227 13.0481 12.3772 13.0481 17.0703 12.2615V4.73975H2.92969V12.2615Z" fill="white"/>
<path d="M8.41504 17.4335H11.5854V19.3917H8.41504V17.4335Z" fill="white"/>
<path d="M2.92969 13.5814V16.128H5.87574V17.4334H2.92969V19.3915H7.24293V16.128H12.757V19.3915H17.0703V17.4334H14.1242V16.128H17.0703V13.5814C14.7233 13.9652 12.3617 14.1572 10 14.1572C7.63832 14.1572 5.27668 13.9652 2.92969 13.5814Z" fill="white"/>
</svg>
