<svg width="20" height="24" viewBox="0 0 20 24" fill="none" xmlns="http://www.w3.org/2000/svg">
<path d="M6.00947 16.5148C5.37454 18.4075 4.01956 22.4299 3.70032 23.3703C3.64933 23.5243 3.51777 23.6267 3.37044 23.6272H0.351878C0.223441 23.626 0.105592 23.5476 0.0437788 23.4222C-0.0180347 23.2968 -0.0141542 23.144 0.0539237 23.0226C0.0539237 23.0187 3.02283 17.72 4.09405 15.8194C4.65759 16.2552 5.32363 16.497 6.00947 16.5148Z" fill="white"/>
<path d="M19.6488 23.6272H16.6302C16.4829 23.6267 16.3513 23.5243 16.3004 23.3703C15.9811 22.4299 14.6261 18.4075 13.9912 16.5148C14.6771 16.497 15.3431 16.2552 15.9066 15.8194C16.9779 17.72 19.9468 23.0187 19.9468 23.0226C20.0148 23.144 20.0187 23.2968 19.9569 23.4222C19.8951 23.5476 19.7772 23.626 19.6488 23.6272Z" fill="white"/>
<path d="M3.26074 9.03882V12.5634C3.26074 14.3092 4.53121 15.7244 6.09841 15.7244H7.16253C7.16253 13.9859 7.16253 10.8169 3.26074 9.03882ZM5.38899 13.3536H4.67957C4.48367 13.3536 4.32487 13.1767 4.32487 12.9585C4.32487 12.7403 4.48367 12.5634 4.67957 12.5634H5.38899C5.58489 12.5634 5.7437 12.7403 5.7437 12.9585C5.7437 13.1767 5.58489 13.3536 5.38899 13.3536Z" fill="white"/>
<path d="M5.38867 6.63656V7.11467C5.9071 7.42985 6.3976 7.79897 6.85362 8.21708H9.64517V3.08038H8.58104C6.81908 3.08343 5.39141 4.6738 5.38867 6.63656Z" fill="white"/>
<path d="M11.419 0.709473H8.58136C5.64327 0.710563 3.26172 3.36351 3.26074 6.63643V8.18929C7.87194 10.1373 7.87194 13.8989 7.87194 15.7244H12.1284C12.1284 14.0135 12.1284 10.1491 16.7396 8.18929V6.63643C16.7387 3.36351 14.3571 0.710563 11.419 0.709473ZM10.7096 14.1439H9.29078C9.09488 14.1439 8.93607 13.967 8.93607 13.7488C8.93607 13.5306 9.09488 13.3536 9.29078 13.3536H10.7096C10.9055 13.3536 11.0643 13.5306 11.0643 13.7488C11.0643 13.967 10.9055 14.1439 10.7096 14.1439ZM10.7096 12.5634H9.29078C9.09488 12.5634 8.93607 12.3865 8.93607 12.1683C8.93607 11.95 9.09488 11.7731 9.29078 11.7731H10.7096C10.9055 11.7731 11.0643 11.95 11.0643 12.1683C11.0643 12.3865 10.9055 12.5634 10.7096 12.5634ZM10.7096 10.9829H9.29078C9.09488 10.9829 8.93607 10.806 8.93607 10.5877C8.93607 10.3695 9.09488 10.1926 9.29078 10.1926H10.7096C10.9055 10.1926 11.0643 10.3695 11.0643 10.5877C11.0643 10.806 10.9055 10.9829 10.7096 10.9829ZM15.3208 7.11454C15.3188 7.40227 15.1778 7.6665 14.9519 7.80601C13.6239 8.62551 13.6239 9.00721 13.15 9.00721H6.85039C6.37792 9.00721 6.37862 8.6267 5.04847 7.80601C4.82256 7.6665 4.68159 7.40227 4.67957 7.11454V6.63643C4.68094 4.23659 6.42703 2.29152 8.58136 2.28999H11.419C13.5734 2.29152 15.3194 4.23659 15.3208 6.63643V7.11454Z" fill="white"/>
<path d="M11.4186 3.08038H10.3545V8.21708H13.1496C13.6031 7.79902 14.0913 7.42989 14.6074 7.11467L14.611 6.63656C14.6083 4.6738 13.1806 3.08343 11.4186 3.08038Z" fill="white"/>
<path d="M12.8369 15.7244H13.901C15.4682 15.7244 16.7387 14.3092 16.7387 12.5634V9.03882C12.8369 10.8327 12.8369 14.0886 12.8369 15.7244ZM15.3199 12.5634C15.5158 12.5634 15.6746 12.7403 15.6746 12.9585C15.6746 13.1767 15.5158 13.3536 15.3199 13.3536H14.6105C14.4146 13.3536 14.2557 13.1767 14.2557 12.9585C14.2557 12.7403 14.4146 12.5634 14.6105 12.5634H15.3199Z" fill="white"/>
<path d="M14.0329 18.8856H5.9668L6.49886 17.3051H13.5008L14.0329 18.8856Z" fill="white"/>
<path d="M15.3589 22.8368H4.63965L5.17171 21.2563H14.8269L15.3589 22.8368Z" fill="white"/>
</svg>
