<svg width="20" height="23" viewBox="0 0 20 23" fill="none" xmlns="http://www.w3.org/2000/svg">
<path d="M6.00947 15.8054C5.37454 17.698 4.01956 21.7205 3.70032 22.6609C3.64933 22.8148 3.51777 22.9173 3.37044 22.9177H0.351878C0.223441 22.9166 0.105592 22.8382 0.0437788 22.7127C-0.0180347 22.5873 -0.0141542 22.4345 0.0539237 22.3132C0.0539237 22.3092 3.02283 17.0105 4.09405 15.1099C4.65759 15.5457 5.32363 15.7875 6.00947 15.8054Z" fill="#043F7C"/>
<path d="M19.6488 22.9177H16.6302C16.4829 22.9173 16.3513 22.8148 16.3004 22.6609C15.9811 21.7205 14.6261 17.698 13.9912 15.8054C14.6771 15.7875 15.3431 15.5457 15.9066 15.1099C16.9779 17.0105 19.9468 22.3092 19.9468 22.3132C20.0148 22.4345 20.0187 22.5873 19.9569 22.7127C19.8951 22.8382 19.7772 22.9166 19.6488 22.9177Z" fill="#043F7C"/>
<path d="M3.26074 8.32935V11.8539C3.26074 13.5997 4.53121 15.015 6.09841 15.015H7.16253C7.16253 13.2764 7.16253 10.1074 3.26074 8.32935ZM5.38899 12.6442H4.67957C4.48367 12.6442 4.32487 12.4673 4.32487 12.249C4.32487 12.0308 4.48367 11.8539 4.67957 11.8539H5.38899C5.58489 11.8539 5.7437 12.0308 5.7437 12.249C5.7437 12.4673 5.58489 12.6442 5.38899 12.6442Z" fill="#043F7C"/>
<path d="M5.38867 5.92708V6.40519C5.9071 6.72038 6.3976 7.0895 6.85362 7.50761H9.64517V2.37091H8.58104C6.81908 2.37396 5.39141 3.96433 5.38867 5.92708Z" fill="#043F7C"/>
<path d="M11.419 0H8.58136C5.64327 0.00109043 3.26172 2.65404 3.26074 5.92696V7.47982C7.87194 9.42781 7.87194 13.1895 7.87194 15.015H12.1284C12.1284 13.304 12.1284 9.43967 16.7396 7.47982V5.92696C16.7387 2.65404 14.3571 0.00109043 11.419 0ZM10.7096 13.4344H9.29078C9.09488 13.4344 8.93607 13.2575 8.93607 13.0393C8.93607 12.8211 9.09488 12.6442 9.29078 12.6442H10.7096C10.9055 12.6442 11.0643 12.8211 11.0643 13.0393C11.0643 13.2575 10.9055 13.4344 10.7096 13.4344ZM10.7096 11.8539H9.29078C9.09488 11.8539 8.93607 11.677 8.93607 11.4588C8.93607 11.2406 9.09488 11.0637 9.29078 11.0637H10.7096C10.9055 11.0637 11.0643 11.2406 11.0643 11.4588C11.0643 11.677 10.9055 11.8539 10.7096 11.8539ZM10.7096 10.2734H9.29078C9.09488 10.2734 8.93607 10.0965 8.93607 9.87826C8.93607 9.66004 9.09488 9.48313 9.29078 9.48313H10.7096C10.9055 9.48313 11.0643 9.66004 11.0643 9.87826C11.0643 10.0965 10.9055 10.2734 10.7096 10.2734ZM15.3208 6.40506C15.3188 6.6928 15.1778 6.95703 14.9519 7.09654C13.6239 7.91604 13.6239 8.29774 13.15 8.29774H6.85039C6.37792 8.29774 6.37862 7.91723 5.04847 7.09654C4.82256 6.95703 4.68159 6.6928 4.67957 6.40506V5.92696C4.68094 3.52712 6.42703 1.58205 8.58136 1.58052H11.419C13.5734 1.58205 15.3194 3.52712 15.3208 5.92696V6.40506Z" fill="#043F7C"/>
<path d="M11.4186 2.37091H10.3545V7.50761H13.1496C13.6031 7.08954 14.0913 6.72042 14.6074 6.40519L14.611 5.92708C14.6083 3.96433 13.1806 2.37396 11.4186 2.37091Z" fill="#043F7C"/>
<path d="M12.8369 15.015H13.901C15.4682 15.015 16.7387 13.5997 16.7387 11.8539V8.32935C12.8369 10.1232 12.8369 13.3791 12.8369 15.015ZM15.3199 11.8539C15.5158 11.8539 15.6746 12.0308 15.6746 12.249C15.6746 12.4673 15.5158 12.6442 15.3199 12.6442H14.6105C14.4146 12.6442 14.2557 12.4673 14.2557 12.249C14.2557 12.0308 14.4146 11.8539 14.6105 11.8539H15.3199Z" fill="#043F7C"/>
<path d="M14.0329 18.1761H5.9668L6.49886 16.5956H13.5008L14.0329 18.1761Z" fill="#043F7C"/>
<path d="M15.3589 22.1273H4.63965L5.17171 20.5468H14.8269L15.3589 22.1273Z" fill="#043F7C"/>
</svg>
