<svg width="20" height="24" viewBox="0 0 20 24" fill="none" xmlns="http://www.w3.org/2000/svg">
<path d="M3.33428 15.2674H8.18218V5.50964L2.83425 14.211C2.55933 14.6583 2.84758 15.2674 3.33428 15.2674Z" fill="#043F7C"/>
<path d="M19.3926 17.6222H10.3026V16.3815H16.3625C16.697 16.3815 16.9685 16.0791 16.9685 15.7065C16.9685 13.662 16.5972 11.7845 15.8648 10.1256C14.6916 7.46822 12.5738 5.43319 10.3026 4.39315V0.675477C10.3026 0.197986 9.86833 -0.127841 9.47241 0.0485737C9.47039 0.0494738 9.46877 0.0503739 9.46675 0.0508239C9.30394 0.12553 5.83448 1.71457 5.83044 1.71637C5.33312 1.94409 5.32989 2.72941 5.82519 2.96253L9.09067 4.49846V17.6222H0.606945C0.234579 17.6222 -0.055128 17.9928 0.00890572 18.426C0.659465 23.1796 0.549456 22.3758 0.562101 22.4682C0.607026 22.7981 0.861625 23.042 1.16123 23.042H14.7069C16.793 23.042 18.6582 21.732 19.559 19.7426C19.562 19.7429 19.5651 19.743 19.5682 19.7432C19.7475 19.3414 19.8869 18.9156 19.9819 18.4737C20.0774 18.029 19.7829 17.6222 19.3926 17.6222ZM10.3026 6.45073C11.921 8.69907 11.9234 11.8664 10.3026 14.1179V6.45073Z" fill="#043F7C"/>
</svg>
