<svg width="20" height="24" viewBox="0 0 20 24" fill="none" xmlns="http://www.w3.org/2000/svg">
<path d="M3.33428 15.9769H8.18218V6.21912L2.83425 14.9205C2.55933 15.3678 2.84758 15.9769 3.33428 15.9769Z" fill="white"/>
<path d="M19.3926 18.3317H10.3026V17.091H16.3625C16.697 17.091 16.9685 16.7886 16.9685 16.416C16.9685 14.3715 16.5972 12.494 15.8648 10.8351C14.6916 8.17769 12.5738 6.14266 10.3026 5.10262V1.38495C10.3026 0.907459 9.86833 0.581631 9.47241 0.758046C9.47039 0.758946 9.46877 0.759847 9.46675 0.760297C9.30394 0.835003 5.83448 2.42404 5.83044 2.42584C5.33312 2.65356 5.32989 3.43888 5.82519 3.672L9.09067 5.20793V18.3317H0.606945C0.234579 18.3317 -0.055128 18.7022 0.00890572 19.1355C0.659465 23.8891 0.549456 23.0853 0.562101 23.1776C0.607026 23.5076 0.861625 23.7514 1.16123 23.7514H14.7069C16.793 23.7514 18.6582 22.4415 19.559 20.4521C19.562 20.4524 19.5651 20.4524 19.5682 20.4527C19.7475 20.0508 19.8869 19.6251 19.9819 19.1831C20.0774 18.7385 19.7829 18.3317 19.3926 18.3317ZM10.3026 7.1602C11.921 9.40855 11.9234 12.5759 10.3026 14.8274V7.1602Z" fill="white"/>
</svg>
