<svg width="48" height="48" viewBox="0 0 48 48" fill="none" xmlns="http://www.w3.org/2000/svg">
<rect width="48" height="48" rx="15" fill="#D2C01E"/>
<path d="M19.7893 27.2333C18.4722 27.2333 17.4079 28.3015 17.4079 29.6186C17.4079 30.9318 18.4722 32 19.7893 32C21.1063 32 22.1707 30.9318 22.1707 29.6186C22.1707 28.3015 21.1063 27.2333 19.7893 27.2333ZM19.7893 30.8093C19.1307 30.8093 18.5985 30.2732 18.5985 29.6185C18.5985 28.96 19.1307 28.4278 19.7893 28.4278C20.4478 28.4278 20.98 28.96 20.98 29.6185C20.98 30.2732 20.4478 30.8093 19.7893 30.8093ZM37.7503 25.4715V28.0144C37.7503 28.6487 37.2361 29.1629 36.6017 29.1629H35.3727C35.1506 27.6391 33.8374 26.4675 32.2523 26.4675C30.6711 26.4675 29.3578 27.6391 29.1358 29.1629H22.9066C22.6845 27.6391 21.3713 26.4675 19.79 26.4675C18.2088 26.4675 16.8956 27.6391 16.6735 29.1629H15.1344C14.5001 29.1629 13.9858 28.6487 13.9858 28.0144V25.4715H37.7503ZM32.2554 27.2333C30.9383 27.2333 29.8701 28.3015 29.8701 29.6186C29.8701 30.9318 30.9384 32 32.2554 32C33.5686 32 34.6368 30.9318 34.6368 29.6186C34.6368 28.3015 33.5686 27.2333 32.2554 27.2333ZM32.2554 30.8093C31.5968 30.8093 31.0647 30.2732 31.0647 29.6185C31.0647 28.96 31.5968 28.4278 32.2554 28.4278C32.9101 28.4278 33.4461 28.96 33.4461 29.6185C33.4461 30.2732 32.9101 30.8093 32.2554 30.8093ZM37.2977 22.9107L32.7838 18.4465C32.4966 18.1632 32.1099 18.0024 31.7079 18.0024H29.4299V17.1486C29.4299 16.513 28.9168 16 28.2813 16H15.1336C14.5019 16 13.9851 16.5131 13.9851 17.1486V17.3285L9.32403 17.8657L17.5832 18.9412L9.2168 19.7723L17.5537 20.9576L9.2168 21.6805L13.9853 22.5799L13.985 24.8366H37.7495V23.998C37.7495 23.5884 37.5848 23.1979 37.2977 22.9107ZM35.3298 23.06H30.9613C30.8618 23.06 30.7813 22.9796 30.7813 22.8801V19.5071C30.7813 19.4075 30.8618 19.3271 30.9613 19.3271H31.7921C31.8381 19.3271 31.884 19.3462 31.9185 19.3769L35.4523 22.7499C35.571 22.8609 35.4905 23.06 35.3298 23.06Z" fill="white"/>
</svg>
