<svg width="48" height="48" viewBox="0 0 48 48" fill="none" xmlns="http://www.w3.org/2000/svg">
<rect width="48" height="48" rx="15" fill="#D6035B"/>
<path d="M32 21.9996C32 21.0406 31.32 20.2386 30.419 20.0456C30.779 19.4446 31 18.7496 31 17.9996C31 15.7936 29.206 13.9996 27 13.9996C25.484 13.9996 24.178 14.8566 23.5 16.1036C22.822 14.8566 21.516 13.9996 20 13.9996C17.794 13.9996 16 15.7936 16 17.9996C16 18.9016 16.312 19.7256 16.817 20.3956C16.5645 20.5801 16.359 20.8215 16.2171 21.1001C16.0752 21.3788 16.0008 21.6869 16 21.9996V29.9996C16 31.1026 16.897 31.9996 18 31.9996H30C31.103 31.9996 32 31.1026 32 29.9996V27.3626L36 29.3626V22.3626L32 24.3626V21.9996ZM27 15.9996C28.103 15.9996 29 16.8966 29 17.9996C29 19.1026 28.103 19.9996 27 19.9996C25.897 19.9996 25 19.1026 25 17.9996C25 16.8966 25.897 15.9996 27 15.9996ZM20 15.9996C21.103 15.9996 22 16.8966 22 17.9996C22 19.1026 21.103 19.9996 20 19.9996C18.897 19.9996 18 19.1026 18 17.9996C18 16.8966 18.897 15.9996 20 15.9996Z" fill="white"/>
</svg>
