<svg width="48" height="48" viewBox="0 0 48 48" fill="none" xmlns="http://www.w3.org/2000/svg">
<rect width="48" height="48" rx="15" fill="#043F7C"/>
<path d="M28.6056 32.3869C27.5038 32.3631 26.6932 31.8531 26.1858 30.8805C25.9868 30.5009 25.8471 30.0897 25.6784 29.6943C25.4715 29.208 25.262 28.7217 25.055 28.2353C24.8481 27.749 24.6504 27.2785 24.4501 26.8001C24.2867 26.4139 24.1259 26.0265 23.9612 25.6416C23.9537 25.626 23.9427 25.6123 23.9289 25.6018C23.9152 25.5912 23.8991 25.5841 23.8821 25.581C23.8544 25.581 23.8175 25.6166 23.8043 25.6456C23.6106 26.0989 23.4208 26.5536 23.2284 27.007L22.6103 28.4699C22.3713 29.0305 22.1336 29.5906 21.8972 30.1503C21.6653 30.7012 21.4584 31.2679 20.9852 31.6752C20.288 32.2748 19.4986 32.516 18.5866 32.3051C18.1753 32.22 17.7911 32.0356 17.4674 31.768C17.1438 31.5004 16.8905 31.1577 16.7296 30.7697C16.5855 30.4663 16.506 30.1363 16.496 29.8005C16.486 29.4648 16.5458 29.1306 16.6716 28.8192C17.0064 27.9876 17.3662 27.1665 17.7141 26.3401C17.9777 25.7075 18.2413 25.0736 18.5049 24.4423C18.7684 23.811 19.0452 23.1902 19.3128 22.5642C19.5487 22.0094 19.7754 21.4519 20.0113 20.897C20.2472 20.3422 20.4884 19.7899 20.7243 19.2351C20.9299 18.7475 21.1302 18.2585 21.3358 17.7695C21.5888 17.124 22.0713 16.5946 22.6907 16.2829C23.1949 16.0262 23.7692 15.941 24.3262 16.0404C24.7325 16.0957 25.1194 16.2486 25.4536 16.4862C25.7878 16.7238 26.0594 17.0389 26.2451 17.4045C26.5338 17.9672 26.7552 18.5643 27.0056 19.1468C27.2455 19.7056 27.4845 20.2648 27.7226 20.8245C27.9255 21.3025 28.1276 21.7805 28.3288 22.2585C28.4 22.4285 28.4606 22.5985 28.5384 22.7672C28.5516 22.7949 28.5898 22.8304 28.6148 22.8304C28.6319 22.8261 28.6478 22.8179 28.6613 22.8065C28.6748 22.7951 28.6855 22.7807 28.6926 22.7645C28.8876 22.3072 29.0787 21.842 29.2725 21.3899C29.4807 20.897 29.6916 20.4067 29.9011 19.9138C30.1107 19.4209 30.2965 18.9557 30.5074 18.4812C30.7341 17.9699 30.8856 17.4176 31.2678 16.9867C31.9782 16.1854 32.8599 15.8559 33.9169 16.0971C34.9027 16.3211 35.5551 16.9458 35.8714 17.8961C36.0776 18.5236 36.0347 19.2064 35.7515 19.8031C35.5367 20.2868 35.339 20.7784 35.132 21.266C34.9014 21.8117 34.6681 22.356 34.4362 22.9003C34.2042 23.4446 33.9578 24.0298 33.7179 24.5952C33.5123 25.0762 33.3054 25.5573 33.1011 26.0449C32.8968 26.5325 32.6952 27.011 32.4896 27.4946C32.284 27.9783 32.0705 28.466 31.8635 28.9536C31.6922 29.349 31.5301 29.7576 31.3575 30.1556C31.165 30.5971 31.0174 31.0597 30.6906 31.4314C30.3956 31.78 30.0182 32.0496 29.5927 32.2155C29.2806 32.3455 28.9433 32.404 28.6056 32.3869Z" fill="white"/>
<path d="M15.4223 26.8908C15.301 26.6087 15.1982 26.3741 15.0981 26.1382C14.751 25.3158 14.4044 24.4921 14.0582 23.6671C13.77 22.9791 13.4831 22.2911 13.1976 21.6032C13.0658 21.2789 12.9076 20.96 12.793 20.6279C12.586 20.0335 12.3739 19.4417 12.4556 18.7828C12.5001 18.3496 12.6359 17.9308 12.8539 17.554C13.072 17.1771 13.3675 16.8507 13.7208 16.5963C14.059 16.3445 14.4475 16.1684 14.8597 16.0799C15.272 15.9915 15.6985 15.9927 16.1102 16.0836C16.5046 16.1549 16.8802 16.3058 17.2143 16.5272C17.5483 16.7486 17.8336 17.0358 18.0529 17.3712C18.3321 17.7593 18.5111 18.2103 18.5739 18.6842C18.6367 19.1581 18.5813 19.6402 18.4127 20.0875C18.3001 20.3511 18.1743 20.6089 18.0358 20.8598C17.8446 21.2631 17.6483 21.6625 17.4743 22.0724C16.9629 23.2717 16.4608 24.475 15.956 25.6769C15.8137 26.0156 15.6779 26.357 15.5369 26.6957C15.502 26.7626 15.4637 26.8277 15.4223 26.8908Z" fill="white"/>
</svg>
