<svg width="15" height="18" viewBox="0 0 15 18" fill="none" xmlns="http://www.w3.org/2000/svg">
<path d="M12.9816 11.6817C12.9756 11.0816 12.9314 10.4935 12.8521 9.91848C14.012 7.25297 15.2997 3.76169 14.9379 2.08758C14.9379 2.08758 14.9379 2.08758 14.9379 2.08727C14.8528 1.69315 14.684 1.39881 14.4367 1.21243C13.505 0.508986 12.1962 0.862162 10.5475 2.25549C10.2757 2.10604 9.96496 2.01975 9.63633 2.01975H9.51975C9.51975 0.906017 8.61376 0 7.5 0C6.38624 0 5.48025 0.906017 5.48025 2.01975H5.3637C5.03507 2.01975 4.7246 2.106 4.45251 2.25549C2.80376 0.862432 1.49496 0.509256 0.563282 1.21273C0.316008 1.39941 0.147485 1.69372 0.0621071 2.08758C0.0621071 2.08758 0.0621071 2.08758 0.0621071 2.08788C-0.299725 3.76169 0.988006 7.25327 2.14792 9.91878C2.06887 10.4938 2.02444 11.0819 2.01839 11.682C1.34118 11.9619 0.863372 12.6296 0.863372 13.4066V15.4472C0.863372 16.4755 1.69984 17.3122 2.72846 17.3122H12.2709C13.2993 17.3122 14.136 16.4755 14.136 15.4472V13.4066C14.1366 12.6293 13.6588 11.9616 12.9816 11.6817ZM14.089 1.67293C14.1167 1.69369 14.1427 1.71793 14.1669 1.74535C14.1513 1.74535 14.1357 1.74911 14.1202 1.74941C13.8025 1.75952 13.5045 1.86282 13.2358 2.02901C13.0385 2.15108 12.8599 2.30198 12.6963 2.46614C12.5001 2.66351 12.3246 2.88106 12.1633 3.10758C11.9697 3.37967 11.7958 3.66559 11.6344 3.9576C11.605 4.01099 11.5759 4.06435 11.5473 4.11831C11.5439 4.04358 11.5386 3.96855 11.5369 3.89356L11.5358 3.8494C11.5329 3.74177 11.5185 3.63675 11.4977 3.53433C11.4948 3.52046 11.4931 3.50664 11.4902 3.49308C11.4691 3.40046 11.4394 3.3113 11.4051 3.22416C11.3959 3.20107 11.3878 3.17828 11.3777 3.15579C11.3416 3.07444 11.2992 2.99711 11.2522 2.92208C11.238 2.89929 11.2242 2.87677 11.2092 2.85486C11.1564 2.77783 11.0978 2.7054 11.0346 2.637C11.0277 2.62949 11.0228 2.62084 11.0158 2.61333C12.0113 1.79269 13.2702 1.05432 14.089 1.67293ZM7.50031 0.576781C8.29579 0.576781 8.943 1.22396 8.943 2.01948H6.05764C6.05761 1.22396 6.70479 0.576781 7.50031 0.576781ZM7.50031 3.17361C8.77306 3.17361 9.80861 4.20917 9.80861 5.48192C9.80861 6.75467 8.77306 7.79022 7.50031 7.79022C6.22755 7.79022 5.192 6.75467 5.192 5.48192C5.192 4.20917 6.22755 3.17361 7.50031 3.17361ZM4.90347 8.6558H10.0971C10.2564 8.6558 10.3857 8.78507 10.3857 8.94433C10.3857 9.10358 10.2564 9.23285 10.0971 9.23285H9.80861V9.80994C9.80861 9.9692 9.67934 10.0985 9.52009 10.0985C9.36083 10.0985 9.23156 9.9692 9.23156 9.80994V9.23285H4.90351C4.74425 9.23285 4.61498 9.10358 4.61498 8.94433C4.61491 8.78507 4.74418 8.6558 4.90347 8.6558ZM0.856744 1.74566C0.849238 1.74566 0.841731 1.74566 0.834225 1.74566C0.85759 1.71797 0.883862 1.69372 0.911555 1.67296C1.72983 1.05435 2.98932 1.79242 3.98478 2.6136C3.97815 2.62053 3.97325 2.62919 3.96659 2.63639C3.90281 2.70534 3.84368 2.77834 3.79059 2.85597C3.77588 2.87731 3.76232 2.89925 3.74846 2.9212C3.70115 2.9968 3.65845 3.07498 3.62207 3.15694C3.61253 3.17885 3.60445 3.2011 3.59583 3.22332C3.5609 3.31076 3.53121 3.40046 3.51014 3.49369C3.50697 3.50697 3.50551 3.52053 3.50294 3.53409C3.48188 3.63682 3.46774 3.74153 3.46487 3.84946L3.46372 3.89362C3.462 3.96835 3.45709 4.04396 3.45334 4.11926C3.0866 3.43022 2.65238 2.7239 2.03894 2.22587C1.71722 1.96473 1.32367 1.76246 0.899213 1.74978C0.885012 1.74941 0.870574 1.74566 0.856744 1.74566ZM1.73159 2.72177C2.16699 3.10149 2.71635 3.83148 3.34047 5.19972C3.23629 5.84287 3.06463 6.50652 2.82601 7.20043C2.09338 5.22078 1.7206 3.69528 1.73159 2.72177ZM12.1169 13.7517C12.1169 13.9646 11.9435 14.138 11.7305 14.138H11.5398V14.9217C11.5398 15.6032 10.9852 16.1578 10.3037 16.1578H4.69684C4.01531 16.1578 3.46074 15.6032 3.46074 14.9217V14.138H3.27001C3.05705 14.138 2.88366 13.9646 2.88366 13.7517V13.0347C2.88366 12.6884 3.16529 12.4068 3.51153 12.4068H11.489C11.8353 12.4068 12.1168 12.6884 12.1168 13.0347V13.7517H12.1169ZM12.1746 7.20043C11.936 6.50648 11.7643 5.84287 11.6601 5.19972C12.2843 3.83148 12.8333 3.10149 13.269 2.72177C13.28 3.69528 12.9072 5.22078 12.1746 7.20043Z" fill="black" fill-opacity="0.35"/>
</svg>
