<svg width="13" height="20" viewBox="0 0 13 20" fill="none" xmlns="http://www.w3.org/2000/svg">
<path d="M2.77244 1.39831L1.89082 1.39901V0.00194111L10.1256 0V1.3969L9.24394 1.39619V0.882324L2.77315 0.884089L2.77244 1.39831ZM12.0208 4.33751L12.0245 18.2339C12.0245 18.7208 11.6297 19.1156 11.1429 19.1163H10.2777L10.2784 19.3734C10.2777 19.7194 9.99991 19.9986 9.65439 19.9986C9.30764 19.9986 9.03041 19.7194 9.02918 19.3734V19.1157L2.9999 19.1177V19.3748C2.9999 19.7208 2.72144 20 2.37663 20C2.02935 20 1.75071 19.7215 1.75071 19.3748L1.75141 19.1177H0.886912C0.400046 19.1177 0.00458821 18.7229 0.00529407 18.2361L0 4.33927C0 3.8524 0.394752 3.45695 0.881619 3.45642H1.89329V2.20722L2.77491 2.20652L2.77562 3.45642L9.24641 3.45448L9.24517 2.20528H10.1275L10.1287 3.45448H11.1399C11.626 3.45448 12.0208 3.84993 12.0208 4.33751ZM9.95756 7.47435L2.0627 7.47629L2.06587 17.0283H2.69797L2.69427 8.10839L9.32617 8.10592L9.32864 17.0264H9.96144L9.95756 7.47435Z" fill="#043F7C"/>
</svg>
