<svg width="18" height="21" viewBox="0 0 18 21" fill="none" xmlns="http://www.w3.org/2000/svg">
<path d="M15.8967 20.5499H2.05727C0.922409 20.5499 0 19.5224 0 18.2582V4.50818C0 3.24399 0.922409 2.21661 2.05727 2.21661H15.8967C17.0316 2.21661 17.954 3.24399 17.954 4.50818V18.2582C17.954 19.5224 17.0316 20.5499 15.8967 20.5499ZM2.05727 3.46661C1.54182 3.46661 1.12212 3.93399 1.12212 4.50818V18.2582C1.12212 18.8324 1.54182 19.2999 2.05727 19.2999H15.8967C16.4121 19.2999 16.8318 18.8324 16.8318 18.2582V4.50818C16.8318 3.93399 16.4121 3.46661 15.8967 3.46661H2.05727Z" fill="#3F88C5" fill-opacity="0.5"/>
<path d="M17.3929 8.46649H0.561061C0.251354 8.46649 0 8.18649 0 7.84149C0 7.49649 0.251354 7.21649 0.561061 7.21649H17.3929C17.7026 7.21649 17.954 7.49649 17.954 7.84149C17.954 8.18649 17.7026 8.46649 17.3929 8.46649Z" fill="#3F88C5" fill-opacity="0.5"/>
<path d="M4.3013 5.5498C3.99159 5.5498 3.74023 5.26981 3.74023 4.9248V1.1748C3.74023 0.829803 3.99159 0.549805 4.3013 0.549805C4.611 0.549805 4.86236 0.829803 4.86236 1.1748V4.9248C4.86236 5.26981 4.611 5.5498 4.3013 5.5498Z" fill="#3F88C5" fill-opacity="0.5"/>
<path d="M13.6529 5.5498C13.3432 5.5498 13.0918 5.26981 13.0918 4.9248V1.1748C13.0918 0.829803 13.3432 0.549805 13.6529 0.549805C13.9626 0.549805 14.2139 0.829803 14.2139 1.1748V4.9248C14.2139 5.26981 13.9626 5.5498 13.6529 5.5498Z" fill="#3F88C5" fill-opacity="0.5"/>
</svg>
