<svg width="18" height="20" viewBox="0 0 18 20" fill="none" xmlns="http://www.w3.org/2000/svg">
<path d="M2.89431 13.2518H7.1022V4.78223L2.4603 12.3348C2.22167 12.7231 2.47187 13.2518 2.89431 13.2518Z" fill="#3F88C5"/>
<path d="M16.8324 15.2958H8.94249V14.2189H14.2023C14.4927 14.2189 14.7283 13.9564 14.7283 13.6329C14.7283 11.8584 14.4061 10.2287 13.7703 8.78887C12.752 6.48227 10.9138 4.71591 8.94249 3.81317V0.586301C8.94249 0.171849 8.56553 -0.110964 8.22188 0.0421611C8.22012 0.0429424 8.21872 0.0437236 8.21697 0.0441142C8.07565 0.108958 5.06422 1.48821 5.06072 1.48978C4.62905 1.68743 4.62624 2.36907 5.05616 2.57142L7.89053 3.90458V15.2958H0.526817C0.20361 15.2958 -0.0478501 15.6174 0.00773 15.9934C0.572403 20.1195 0.476917 19.4218 0.487893 19.502C0.526887 19.7883 0.747875 20 1.00793 20H12.7653C14.576 20 16.195 18.863 16.9768 17.1363C16.9795 17.1365 16.9822 17.1365 16.9848 17.1368C17.1405 16.7879 17.2615 16.4184 17.3439 16.0348C17.4268 15.6489 17.1712 15.2958 16.8324 15.2958ZM8.94249 5.59911C10.3472 7.55063 10.3493 10.2998 8.94249 12.2541V5.59911Z" fill="#3F88C5"/>
</svg>
