<svg width="15" height="15" viewBox="0 0 15 15" fill="none" xmlns="http://www.w3.org/2000/svg">
<path d="M4.64845 14.5444L10.4422 8.75004L13.0116 8.75004C13.4172 8.75004 13.826 8.66004 14.2072 8.48253L14.4572 8.35067C14.7929 8.19504 15.001 7.86941 15.001 7.50003C15.001 7.13065 14.7929 6.80502 14.4716 6.65628L14.1935 6.51064C13.826 6.34002 13.4179 6.25002 13.0116 6.25002L10.4422 6.25002L4.64968 0.457501C4.35469 0.16251 3.96281 -4.82494e-07 3.5453 -5.00744e-07L2.81278 -5.32763e-07C2.69841 -5.37762e-07 2.59341 0.0624899 2.53903 0.16251C2.48404 0.2625 2.48779 0.385021 2.55028 0.481261L6.32467 6.37127C5.37905 6.4294 4.58968 6.50815 3.62903 6.60439L2.64465 6.70377L1.19902 4.51563C1.14028 4.42751 1.04278 4.37501 0.937777 4.37501L0.312784 4.37501C0.218419 4.37501 0.128419 4.41813 0.0690344 4.49187C0.00903396 4.56626 -0.0134661 4.66311 0.00715903 4.75499L0.617796 7.5L0.00715879 10.245C0.00214913 10.2675 -0.000342819 10.29 -0.00034282 10.3125C-0.000342823 10.3831 0.023418 10.4519 0.068418 10.5081C0.128418 10.5819 0.218419 10.625 0.312784 10.625L0.937777 10.625C1.04278 10.625 1.14089 10.5725 1.1984 10.4844L2.64216 8.29623L3.62967 8.39561C4.58906 8.49185 5.37779 8.5706 6.32344 8.62872L2.55031 14.5187C2.48782 14.6156 2.48469 14.7375 2.53906 14.8369C2.59344 14.9375 2.69844 15 2.81281 15L3.54533 15C3.96281 15.0001 4.35469 14.8382 4.64845 14.5444Z" fill="#043F7C"/>
</svg>
