<svg width="15" height="15" viewBox="0 0 15 15" fill="none" xmlns="http://www.w3.org/2000/svg">
<path d="M7.5 0C3.3544 0 0 3.3547 0 7.5C0 11.6456 3.3547 15 7.5 15C11.6456 15 15 11.6453 15 7.5C15 3.3544 11.6453 0 7.5 0ZM7.5 13.8281C4.00216 13.8281 1.17188 10.9976 1.17188 7.5C1.17188 4.00216 4.00239 1.17188 7.5 1.17188C10.9978 1.17188 13.8281 4.00239 13.8281 7.5C13.8281 10.9978 10.9976 13.8281 7.5 13.8281Z" fill="black" fill-opacity="0.35"/>
<path d="M7.5 3.77563C7.17639 3.77563 6.91406 4.03796 6.91406 4.36157V8.1348C6.91406 8.45842 7.17639 8.72074 7.5 8.72074C7.82361 8.72074 8.08594 8.45842 8.08594 8.1348V4.36157C8.08594 4.03796 7.82361 3.77563 7.5 3.77563Z" fill="black" fill-opacity="0.35"/>
<path d="M7.5 11.0204C7.93687 11.0204 8.29102 10.6662 8.29102 10.2294C8.29102 9.7925 7.93687 9.43835 7.5 9.43835C7.06313 9.43835 6.70898 9.7925 6.70898 10.2294C6.70898 10.6662 7.06313 11.0204 7.5 11.0204Z" fill="black" fill-opacity="0.35"/>
</svg>
