<svg width="20" height="20" viewBox="0 0 20 20" fill="none" xmlns="http://www.w3.org/2000/svg">
<path d="M20.0066 19.4825L19.5066 17.4825C19.2693 16.5123 18.5501 15.732 17.6024 15.4167L13.9357 14.195C13.0415 13.8225 12.6324 12.3825 12.544 11.8358C13.2254 11.2693 13.6638 10.4632 13.769 9.58332C13.754 9.43305 13.7895 9.28203 13.8699 9.15414C13.9998 9.1216 14.1061 9.02855 14.1557 8.90414C14.3956 8.3232 14.5462 7.7093 14.6024 7.08332C14.6025 7.0493 14.5983 7.01543 14.5899 6.9825C14.5302 6.73926 14.3872 6.52461 14.1857 6.37582V4.16664C14.1857 2.82414 13.7757 2.27332 13.344 1.95414C13.2616 1.3075 12.5691 0 10.0191 0C7.75669 0.0910937 5.94349 1.9043 5.85239 4.16668V6.37586C5.65091 6.52465 5.5079 6.7393 5.44821 6.98254C5.43978 7.01547 5.4356 7.04938 5.43571 7.08336C5.49181 7.70965 5.64239 8.32383 5.88239 8.90504C5.91849 9.02281 6.01313 9.1134 6.13239 9.14422C6.17907 9.16754 6.26657 9.2884 6.26657 9.5834C6.37247 10.4657 6.81341 11.2737 7.49825 11.8401C7.41075 12.3859 7.00407 13.8251 6.13493 14.1884L2.43575 15.4167C1.48876 15.732 0.77001 16.5115 0.532432 17.4809L0.0324323 19.4809C-0.0241692 19.7039 0.110753 19.9307 0.3338 19.9873C0.36712 19.9957 0.401378 20 0.435753 20.0001H19.6024C19.8326 20 20.019 19.8134 20.019 19.5833C20.019 19.5493 20.0148 19.5154 20.0066 19.4825Z" fill="#043F7C" fill-opacity="0.5"/>
</svg>
