<svg width="15" height="15" viewBox="0 0 15 15" fill="none" xmlns="http://www.w3.org/2000/svg">
<path d="M10.4297 14.1211V12.9492H4.57031V14.1211H0V15H15V14.1211H10.4297Z" fill="black" fill-opacity="0.35"/>
<path d="M1.64062 10.6055C1.64062 11.5748 2.42912 12.3633 3.39844 12.3633C4.36775 12.3633 5.15625 11.5748 5.15625 10.6055C5.15625 9.63615 4.36775 8.84766 3.39844 8.84766C2.42912 8.84766 1.64062 9.63615 1.64062 10.6055Z" fill="black" fill-opacity="0.35"/>
<path d="M6.03516 10.6055C6.03516 11.1471 5.87094 11.651 5.58976 12.0703H10.1756C11.0457 12.0703 11.7744 11.4181 11.8705 10.5534C11.9266 10.0487 11.7569 9.54932 11.405 9.18323C11.0531 8.81713 10.5607 8.62819 10.0542 8.66412L5.48138 8.99074C5.82825 9.43717 6.03516 9.99759 6.03516 10.6055Z" fill="black" fill-opacity="0.35"/>
<path d="M3.13477 6.65039C3.13477 6.89266 3.33195 7.08984 3.57422 7.08984C3.81649 7.08984 4.01367 6.89266 4.01367 6.65039C4.01367 6.40812 3.81649 6.21094 3.57422 6.21094C3.33195 6.21094 3.13477 6.40812 3.13477 6.65039Z" fill="black" fill-opacity="0.35"/>
<path d="M4.84152 7.01307L9.88242 6.64926L9.81913 5.77264L4.78796 6.13577C4.85537 6.29392 4.89268 6.46787 4.89268 6.65041C4.89268 6.77618 4.8746 6.89771 4.84152 7.01307Z" fill="black" fill-opacity="0.35"/>
<path d="M3.39856 7.96875C3.82165 7.96875 4.22185 8.06911 4.5765 8.24696C4.52546 8.04749 4.47934 7.84698 4.43734 7.6458C4.20594 7.84676 3.90416 7.96875 3.57434 7.96875C2.84741 7.96875 2.25598 7.37732 2.25598 6.65039C2.25598 5.92346 2.84741 5.33203 3.57434 5.33203C3.78606 5.33203 3.98598 5.3825 4.16348 5.47153C4.10809 4.2318 4.22207 2.98439 4.50703 1.76376C4.60763 1.33301 4.50783 0.887604 4.2334 0.541649C3.96035 0.197411 3.55157 0 3.11188 0C2.46655 0 1.89778 0.433846 1.72887 1.05503C1.05515 3.53256 1.04989 6.11801 1.70598 8.58547C2.16431 8.20072 2.75483 7.96875 3.39856 7.96875Z" fill="black" fill-opacity="0.35"/>
</svg>
